<?xml version="1.0" encoding="utf-8" standalone="yes"?>
<!DOCTYPE svg PUBLIC "-//W3C//DTD SVG 1.1//EN" "http://www.w3.org/Graphics/SVG/1.1/DTD/svg11.dtd">
<svg width="984" height="468" viewBox="0 0 984 468" style="fill:none;stroke:none;fill-rule:evenodd;clip-rule:evenodd;stroke-linecap:round;stroke-linejoin:round;stroke-miterlimit:1.5;" version="1.1" xmlns="http://www.w3.org/2000/svg" xmlns:xlink="http://www.w3.org/1999/xlink"><style class="text-font-style fontImports" data-font-family="Roboto">@import url(https://fonts.googleapis.com/css2?family=Roboto:wght@400;700&amp;amp;display=block);</style><g id="items" style="isolation: isolate"><g id="blend" style="mix-blend-mode: normal"><g id="g-root-cp_1_g-1_hun4si1qripz6-fill" data-item-order="-348150" transform="translate(50, 212)"><g id="cp_1_g-1_hun4si1qripz6-fill" stroke="none" fill="#4f91fc"><g><path d="M 10 10L 106 10L 106 22L 10 22L 10 10Z"></path></g></g></g><g id="g-root-cp_2_g-2_8z04jm1qriqrw-fill" data-item-order="-348146" transform="translate(146, 212)"><g id="cp_2_g-2_8z04jm1qriqrw-fill" stroke="none" fill="#1ac3fb"><g><path d="M 10 10L 106 10L 106 22L 10 22Z"></path></g></g></g><g id="g-root-cp_3_g-3_8z04jm1qriqrx-fill" data-item-order="-348142" transform="translate(242, 212)"><g id="cp_3_g-3_8z04jm1qriqrx-fill" stroke="none" fill="#43dd93"><g><path d="M 10 10L 106 10L 106 22L 10 22Z"></path></g></g></g><g id="g-root-cp_4_g-4_8z04jm1qriqry-fill" data-item-order="-348138" transform="translate(338, 212)"><g id="cp_4_g-4_8z04jm1qriqry-fill" stroke="none" fill="#a6da37"><g><path d="M 10 10L 106 10L 106 22L 10 22Z"></path></g></g></g><g id="g-root-cp_5_g-5_8z04jm1qriqrz-fill" data-item-order="-348134" transform="translate(434, 212)"><g id="cp_5_g-5_8z04jm1qriqrz-fill" stroke="none" fill="#ffe711"><g><path d="M 10 10L 106 10L 106 22L 10 22L 10 10Z"></path></g></g></g><g id="g-root-cp_6_g-6_detmo21qriqrl-fill" data-item-order="-348130" transform="translate(530, 212)"><g id="cp_6_g-6_detmo21qriqrl-fill" stroke="none" fill="#f79438"><g><path d="M 10 10L 106 10L 106 22L 10 22L 10 10Z"></path></g></g></g><g id="g-root-cp_7_g-7_4j6mf61qrirkb-fill" data-item-order="-348126" transform="translate(626, 212)"><g id="cp_7_g-7_4j6mf61qrirkb-fill" stroke="none" fill="#fb6762"><g><path d="M 10 10L 106 10L 106 22L 10 22Z"></path></g></g></g><g id="g-root-cp_8_g-8_4j6mf61qrirkc-fill" data-item-order="-348122" transform="translate(722, 212)"><g id="cp_8_g-8_4j6mf61qrirkc-fill" stroke="none" fill="#f366bb"><g><path d="M 10 10L 106 10L 106 22L 10 22Z"></path></g></g></g><g id="g-root-cp_9_g-9_4j6mf61qrirkd-fill" data-item-order="-348118" transform="translate(818, 205.5)"><g id="cp_9_g-9_4j6mf61qrirkd-fill" stroke="none" fill="#cb68f9"><g><path d="M 10 16.5L 87.7143 16.5L 87.7143 10L 106 22.5L 87.7143 35L 87.7143 28.5L 10 28.5L 10 16.5Z"></path></g></g></g><g id="g-root-tx_retrieva_1ltn4zm1qriqkt-fill" data-item-order="0" transform="translate(440, 170)"><g id="tx_retrieva_1ltn4zm1qriqkt-fill" stroke="none" fill="#ffe711"><g><text style="font: bold 20px Roboto, sans-serif; white-space: pre;" font-weight="bold" font-size="20px" font-family="Roboto, sans-serif"><tspan x="12.17" y="34" dominant-baseline="ideographic">Retrieval</tspan></text></g></g></g><g id="g-root-tx_generati_1hdtmv61qrird3-fill" data-item-order="0" transform="translate(620, 170)"><g id="tx_generati_1hdtmv61qrird3-fill" stroke="none" fill="#fb6762"><g><text style="font: bold 20px Roboto, sans-serif; white-space: pre;" font-weight="bold" font-size="20px" font-family="Roboto, sans-serif"><tspan x="14.64" y="34" dominant-baseline="ideographic">Generation</tspan></text></g></g></g><g id="g-root-tx_chunking_1upa58i1qrips3-fill" data-item-order="0" transform="translate(242, 170)"><g id="tx_chunking_1upa58i1qrips3-fill" stroke="none" fill="#43dd93"><g><text style="font: bold 20px Roboto, sans-serif; white-space: pre;" font-weight="bold" font-size="20px" font-family="Roboto, sans-serif"><tspan x="15.34" y="34" dominant-baseline="ideographic">Chunking</tspan></text></g></g></g><g id="g-root-tx_dataretr_3zldu1qrip6x-fill" data-item-order="0" transform="translate(32, 170)"><g id="tx_dataretr_3zldu1qrip6x-fill" stroke="none" fill="#4f91fc"><g><text style="font: bold 20px Roboto, sans-serif; white-space: pre;" font-weight="bold" font-size="20px" font-family="Roboto, sans-serif"><tspan x="13.09" y="34" dominant-baseline="ideographic">Data Retrieval</tspan></text></g></g></g><g id="g-root-tx_response_1hdtmv61qrird5-fill" data-item-order="0" transform="translate(812, 146)"><g id="tx_response_1hdtmv61qrird5-fill" stroke="none" fill="#cb68f9"><g><text style="font: bold 20px Roboto, sans-serif; white-space: pre;" font-weight="bold" font-size="20px" font-family="Roboto, sans-serif"><tspan x="17.14" y="34" dominant-baseline="ideographic">Response </tspan><tspan x="25.13" y="58" dominant-baseline="ideographic">Delivery</tspan></text></g></g></g><g id="g-root-tx_callllmt_1ltn4zm1qriqku-fill" data-item-order="0" transform="translate(602, 122)"><g id="tx_callllmt_1ltn4zm1qriqku-fill" stroke="none" fill="#f4f4f4"><g><text style="font: 15px Roboto, sans-serif; white-space: pre;" font-size="15px" font-family="Roboto, sans-serif"><tspan x="13.65" y="28" dominant-baseline="ideographic">Call LLM to produce </tspan><tspan x="22.57" y="46" dominant-baseline="ideographic">grounded answer</tspan></text></g></g></g><g id="g-root-tx_runsimil_1upa58i1qrips4-fill" data-item-order="0" transform="translate(404, 122)"><g id="tx_runsimil_1upa58i1qrips4-fill" stroke="none" fill="#f4f4f4"><g><text style="font: 15px Roboto, sans-serif; white-space: pre;" font-size="15px" font-family="Roboto, sans-serif"><tspan x="16.69" y="28" dominant-baseline="ideographic">Run similarity search </tspan><tspan x="21.41" y="46" dominant-baseline="ideographic">against FAISS store</tspan></text></g></g></g><g id="g-root-tx_splittex_1upa58i1qrips2-fill" data-item-order="0" transform="translate(224, 122)"><g id="tx_splittex_1upa58i1qrips2-fill" stroke="none" fill="#f4f4f4"><g><text style="font: 15px Roboto, sans-serif; white-space: pre;" font-size="15px" font-family="Roboto, sans-serif"><tspan x="15.79" y="28" dominant-baseline="ideographic">Split text into non-</tspan><tspan x="29.37" y="46" dominant-baseline="ideographic">empty chunks</tspan></text></g></g></g><g id="g-root-tx_querypos_3zldu1qrip6w-fill" data-item-order="0" transform="translate(26, 122)"><g id="tx_querypos_3zldu1qrip6w-fill" stroke="none" fill="#f4f4f4"><g><text style="font: 15px Roboto, sans-serif; white-space: pre;" font-size="15px" font-family="Roboto, sans-serif"><tspan x="18.57" y="28" dominant-baseline="ideographic">Query Postgres for </tspan><tspan x="16.9" y="46" dominant-baseline="ideographic">profile and job data</tspan></text></g></g></g><g id="g-root-tx_returnan_1hdtmv61qrird4-fill" data-item-order="0" transform="translate(800, 98)"><g id="tx_returnan_1hdtmv61qrird4-fill" stroke="none" fill="#f4f4f4"><g><text style="font: 15px Roboto, sans-serif; white-space: pre;" font-size="15px" font-family="Roboto, sans-serif"><tspan x="17.63" y="28" dominant-baseline="ideographic">Return answer to </tspan><tspan x="45.82" y="46" dominant-baseline="ideographic">frontend</tspan></text></g></g></g><g id="g-root-tx_appendqu_zn63gi1qriqkp-fill" data-item-order="0" transform="translate(704, 326)"><g id="tx_appendqu_zn63gi1qriqkp-fill" stroke="none" fill="#f4f4f4"><g><text style="font: 15px Roboto, sans-serif; white-space: pre;" font-size="15px" font-family="Roboto, sans-serif"><tspan x="17.66" y="31" dominant-baseline="ideographic">Append question </tspan><tspan x="20.49" y="49" dominant-baseline="ideographic">and response to </tspan><tspan x="48.29" y="67" dominant-baseline="ideographic">session</tspan></text></g></g></g><g id="g-root-tx_resumebu_1cymltu1qriozm-fill" data-item-order="0" transform="translate(152, 242)"><g id="tx_resumebu_1cymltu1qriozm-fill" stroke="none" fill="#1ac3fb"><g><text style="font: bold 20px Roboto, sans-serif; white-space: pre;" font-weight="bold" font-size="20px" font-family="Roboto, sans-serif"><tspan x="13.02" y="34" dominant-baseline="ideographic">Resume </tspan><tspan x="12.77" y="58" dominant-baseline="ideographic">Building</tspan></text></g></g></g><g id="g-root-tx_vectorst_142zlky1qripsc-fill" data-item-order="0" transform="translate(320, 242)"><g id="tx_vectorst_142zlky1qripsc-fill" stroke="none" fill="#a6da37"><g><text style="font: bold 20px Roboto, sans-serif; white-space: pre;" font-weight="bold" font-size="20px" font-family="Roboto, sans-serif"><tspan x="17.5" y="34" dominant-baseline="ideographic">Vector Store </tspan><tspan x="20.98" y="58" dominant-baseline="ideographic">Preparation</tspan></text></g></g></g><g id="g-root-tx_promptas_142zlky1qripse-fill" data-item-order="0" transform="translate(530, 242)"><g id="tx_promptas_142zlky1qripse-fill" stroke="none" fill="#f79438"><g><text style="font: bold 20px Roboto, sans-serif; white-space: pre;" font-weight="bold" font-size="20px" font-family="Roboto, sans-serif"><tspan x="24.72" y="34" dominant-baseline="ideographic">Prompt </tspan><tspan x="13.63" y="58" dominant-baseline="ideographic">Assembly</tspan></text></g></g></g><g id="g-root-tx_sessionm_zn63gi1qriqko-fill" data-item-order="0" transform="translate(728, 242)"><g id="tx_sessionm_zn63gi1qriqko-fill" stroke="none" fill="#f366bb"><g><text style="font: bold 20px Roboto, sans-serif; white-space: pre;" font-weight="bold" font-size="20px" font-family="Roboto, sans-serif"><tspan x="13.77" y="34" dominant-baseline="ideographic">Session </tspan><tspan x="12.26" y="58" dominant-baseline="ideographic">Memory </tspan><tspan x="17.51" y="82" dominant-baseline="ideographic">Update</tspan></text></g></g></g><g id="g-root-tx_combiner_1cymltu1qriozn-fill" data-item-order="0" transform="translate(128, 302)"><g id="tx_combiner_1cymltu1qriozn-fill" stroke="none" fill="#f4f4f4"><g><text style="font: 15px Roboto, sans-serif; white-space: pre;" font-size="15px" font-family="Roboto, sans-serif"><tspan x="17.16" y="28" dominant-baseline="ideographic">Combine records </tspan><tspan x="24.72" y="46" dominant-baseline="ideographic">into a text blob</tspan></text></g></g></g><g id="g-root-tx_embedchu_142zlky1qripsd-fill" data-item-order="0" transform="translate(314, 302)"><g id="tx_embedchu_142zlky1qripsd-fill" stroke="none" fill="#f4f4f4"><g><text style="font: 15px Roboto, sans-serif; white-space: pre;" font-size="15px" font-family="Roboto, sans-serif"><tspan x="16.7" y="28" dominant-baseline="ideographic">Embed chunks and </tspan><tspan x="22.93" y="46" dominant-baseline="ideographic">build FAISS index</tspan></text></g></g></g><g id="g-root-tx_insertsn_zn63gi1qriqkn-fill" data-item-order="0" transform="translate(506, 302)"><g id="tx_insertsn_zn63gi1qriqkn-fill" stroke="none" fill="#f4f4f4"><g><text style="font: 15px Roboto, sans-serif; white-space: pre;" font-size="15px" font-family="Roboto, sans-serif"><tspan x="16.02" y="28" dominant-baseline="ideographic">Insert snippets into </tspan><tspan x="24.52" y="46" dominant-baseline="ideographic">prompt template</tspan></text></g></g></g><g id="g-root-tx_streamli_4j6mf61qrirkf-fill" data-item-order="0" transform="translate(338, 38)"><g id="tx_streamli_4j6mf61qrirkf-fill" stroke="none" fill="#f4f4f4"><g><text style="font: bold 25px Roboto, sans-serif; white-space: pre;" font-weight="bold" font-size="25px" font-family="Roboto, sans-serif"><tspan x="13.77" y="42" dominant-baseline="ideographic">Using RAGs in JobTrackr</tspan></text></g></g></g><g id="g-root-cp_1_g-1_hun4si1qripz6-stroke" data-item-order="-348150" transform="translate(50, 212)"><g id="cp_1_g-1_hun4si1qripz6-stroke" fill="none" stroke-linecap="round" stroke-linejoin="round" stroke-miterlimit="4" stroke="#2c2c2c" stroke-width="2"><g><path d="M 10 10L 106 10L 106 22L 10 22L 10 10Z"></path></g></g></g><g id="g-root-cp_2_g-2_8z04jm1qriqrw-stroke" data-item-order="-348146" transform="translate(146, 212)"><g id="cp_2_g-2_8z04jm1qriqrw-stroke" fill="none" stroke-linecap="round" stroke-linejoin="round" stroke-miterlimit="4" stroke="#2c2c2c" stroke-width="2"><g><path d="M 10 10L 106 10L 106 22L 10 22Z"></path></g></g></g><g id="g-root-cp_3_g-3_8z04jm1qriqrx-stroke" data-item-order="-348142" transform="translate(242, 212)"><g id="cp_3_g-3_8z04jm1qriqrx-stroke" fill="none" stroke-linecap="round" stroke-linejoin="round" stroke-miterlimit="4" stroke="#2c2c2c" stroke-width="2"><g><path d="M 10 10L 106 10L 106 22L 10 22Z"></path></g></g></g><g id="g-root-cp_4_g-4_8z04jm1qriqry-stroke" data-item-order="-348138" transform="translate(338, 212)"><g id="cp_4_g-4_8z04jm1qriqry-stroke" fill="none" stroke-linecap="round" stroke-linejoin="round" stroke-miterlimit="4" stroke="#2c2c2c" stroke-width="2"><g><path d="M 10 10L 106 10L 106 22L 10 22Z"></path></g></g></g><g id="g-root-cp_5_g-5_8z04jm1qriqrz-stroke" data-item-order="-348134" transform="translate(434, 212)"><g id="cp_5_g-5_8z04jm1qriqrz-stroke" fill="none" stroke-linecap="round" stroke-linejoin="round" stroke-miterlimit="4" stroke="#2c2c2c" stroke-width="2"><g><path d="M 10 10L 106 10L 106 22L 10 22L 10 10Z"></path></g></g></g><g id="g-root-cp_6_g-6_detmo21qriqrl-stroke" data-item-order="-348130" transform="translate(530, 212)"><g id="cp_6_g-6_detmo21qriqrl-stroke" fill="none" stroke-linecap="round" stroke-linejoin="round" stroke-miterlimit="4" stroke="#2c2c2c" stroke-width="2"><g><path d="M 10 10L 106 10L 106 22L 10 22L 10 10Z"></path></g></g></g><g id="g-root-cp_7_g-7_4j6mf61qrirkb-stroke" data-item-order="-348126" transform="translate(626, 212)"><g id="cp_7_g-7_4j6mf61qrirkb-stroke" fill="none" stroke-linecap="round" stroke-linejoin="round" stroke-miterlimit="4" stroke="#2c2c2c" stroke-width="2"><g><path d="M 10 10L 106 10L 106 22L 10 22Z"></path></g></g></g><g id="g-root-cp_8_g-8_4j6mf61qrirkc-stroke" data-item-order="-348122" transform="translate(722, 212)"><g id="cp_8_g-8_4j6mf61qrirkc-stroke" fill="none" stroke-linecap="round" stroke-linejoin="round" stroke-miterlimit="4" stroke="#2c2c2c" stroke-width="2"><g><path d="M 10 10L 106 10L 106 22L 10 22Z"></path></g></g></g><g id="g-root-cp_9_g-9_4j6mf61qrirkd-stroke" data-item-order="-348118" transform="translate(818, 205.5)"><g id="cp_9_g-9_4j6mf61qrirkd-stroke" fill="none" stroke-linecap="round" stroke-linejoin="round" stroke-miterlimit="4" stroke="#2c2c2c" stroke-width="2"><g><path d="M 10 16.5L 87.7143 16.5L 87.7143 10L 106 22.5L 87.7143 35L 87.7143 28.5L 10 28.5L 10 16.5Z"></path></g></g></g><g id="g-root-tx_retrieva_1ltn4zm1qriqkt-stroke" data-item-order="0" transform="translate(440, 170)"></g><g id="g-root-tx_generati_1hdtmv61qrird3-stroke" data-item-order="0" transform="translate(620, 170)"></g><g id="g-root-tx_chunking_1upa58i1qrips3-stroke" data-item-order="0" transform="translate(242, 170)"></g><g id="g-root-tx_dataretr_3zldu1qrip6x-stroke" data-item-order="0" transform="translate(32, 170)"></g><g id="g-root-tx_response_1hdtmv61qrird5-stroke" data-item-order="0" transform="translate(812, 146)"></g><g id="g-root-tx_callllmt_1ltn4zm1qriqku-stroke" data-item-order="0" transform="translate(602, 122)"></g><g id="g-root-tx_runsimil_1upa58i1qrips4-stroke" data-item-order="0" transform="translate(404, 122)"></g><g id="g-root-tx_splittex_1upa58i1qrips2-stroke" data-item-order="0" transform="translate(224, 122)"></g><g id="g-root-tx_querypos_3zldu1qrip6w-stroke" data-item-order="0" transform="translate(26, 122)"></g><g id="g-root-tx_returnan_1hdtmv61qrird4-stroke" data-item-order="0" transform="translate(800, 98)"></g><g id="g-root-tx_appendqu_zn63gi1qriqkp-stroke" data-item-order="0" transform="translate(704, 326)"></g><g id="g-root-tx_resumebu_1cymltu1qriozm-stroke" data-item-order="0" transform="translate(152, 242)"></g><g id="g-root-tx_vectorst_142zlky1qripsc-stroke" data-item-order="0" transform="translate(320, 242)"></g><g id="g-root-tx_promptas_142zlky1qripse-stroke" data-item-order="0" transform="translate(530, 242)"></g><g id="g-root-tx_sessionm_zn63gi1qriqko-stroke" data-item-order="0" transform="translate(728, 242)"></g><g id="g-root-tx_combiner_1cymltu1qriozn-stroke" data-item-order="0" transform="translate(128, 302)"></g><g id="g-root-tx_embedchu_142zlky1qripsd-stroke" data-item-order="0" transform="translate(314, 302)"></g><g id="g-root-tx_insertsn_zn63gi1qriqkn-stroke" data-item-order="0" transform="translate(506, 302)"></g><g id="g-root-tx_streamli_4j6mf61qrirkf-stroke" data-item-order="0" transform="translate(338, 38)"></g></g></g><path id="w1q9gdmq1sflxjh" d="M65.283 12.757a.35.35 0 0 0 .584.157l5.203-5.141-6.183 3.523.396 1.461zm-2.216-11.7a.35.35 0 0 0-.522.305v3.111l3.276-1.868-2.754-1.548zm3.728 2.105l-4.25 2.421v2.445l6.391-3.644-2.141-1.222zm4.708 3.303a.35.35 0 0 0 0-.609l-1.592-.9-7.365 4.199v1.782a.35.35 0 0 0 .523.305l8.435-4.777z M44.542 2.513c0-.433.355-.783.792-.783s.792.35.792.783-.355.783-.792.783-.792-.35-.792-.783zm59.171 0c0-.433.355-.783.792-.783s.792.35.792.783-.355.783-.792.783-.792-.35-.792-.783zm-85.951 7.636h-1.27v-.487c-.276.201-.864.609-1.881.609-1.202 0-2.274-.794-2.137-2.078.118-1.106 1.153-1.584 1.848-1.727l2.17-.345c0-.539-.29-.956-1.064-1.006s-1.21.305-1.571 1.017l-1.124-.605c1.218-2.631 5.029-1.764 5.029.414v4.207zm-1.27-2.86c.006.396-.062 1.112-.819 1.59-.587.37-1.841.299-1.903-.395-.049-.555.461-.791.906-.898l1.816-.297zm72.662 2.86h-1.27v-.487c-.276.201-.864.609-1.881.609-1.202 0-2.274-.794-2.137-2.078.118-1.106 1.153-1.584 1.848-1.727l2.17-.345c0-.539-.29-.956-1.064-1.006s-1.21.305-1.571 1.017l-1.124-.605c1.218-2.631 5.029-1.764 5.029.414v4.207zm-1.27-2.86c.006.396-.062 1.112-.82 1.59-.587.37-1.841.299-1.903-.395-.049-.555.461-.791.906-.898l1.816-.297zM99.096 10.149H97.85v-8.45h1.246v4.895l2.68-2.559h1.738l-2.633 2.535 2.715 3.578h-1.556l-2.077-2.707-.867.844v1.863zm6.053-6.114h-1.255v6.113h1.255V4.035zm-59.2 0h-1.255v6.113h1.255V4.035zm5.584 6.113V1.697h1.255v2.695c.361-.346 1-.485 1.47-.485 1.452 0 2.477 1.082 2.457 2.448v3.792h-1.27v-3.68c0-.408-.214-1.339-1.315-1.339-.968 0-1.342.756-1.342 1.339v3.681h-1.255zm-4.76-4.894V4.039h.621a.45.45 0 0 0 .45-.45v-.855h1.251v1.305h1.309v1.215h-1.309v3.109c0 .293.105.664.648.664.365 0 .531-.035.736-.07v1.137s-.361.113-.857.113c-1.398 0-1.777-1.051-1.777-1.788V5.254h-1.071zM36.528 4.039h-1.394l2.191 6.106h1.125l1.234-3.918 1.238 3.918h1.129l2.188-6.106h-1.383l-1.359 3.93-1.256-3.93h-1.124l-1.242 3.957-1.348-3.957zM26.212 7.141c-.02 1.566 1.187 3.129 3.223 3.129 1.566 0 2.383-.918 2.734-1.719L31.172 8c-.315.399-.801 1.094-1.738 1.094-1.145 0-1.825-.781-1.891-1.52h4.625c.074-.284.148-.995-.03-1.559-.336-1.064-1.221-2.102-2.839-2.102s-3.088 1.152-3.088 3.227zm1.363-.75h3.348c-.055-.43-.566-1.301-1.623-1.301a1.79 1.79 0 0 0-1.725 1.301zm-8.758.75c.038 1.758 1.277 3.133 3.145 3.133 1.074 0 1.723-.477 1.961-.672v.547h1.242V1.703h-1.258v2.888c-.414-.36-1.062-.68-1.93-.68-1.91 0-3.198 1.473-3.16 3.23zm1.309-.08c0 1.119.723 1.978 1.836 1.978a1.88 1.88 0 0 0 1.94-1.904c0-1.371-1.011-1.99-1.972-1.99s-1.805.798-1.805 1.916zm76.683-.028C96.771 5.275 95.532 3.9 93.664 3.9c-1.074 0-1.723.477-1.961.672v-.547h-1.242v8.22h1.258V9.583c.414.36 1.063.68 1.93.68 1.91 0 3.198-1.473 3.16-3.23zm-1.309.08c0-1.119-.723-1.978-1.836-1.978a1.88 1.88 0 0 0-1.94 1.904c0 1.371 1.011 1.99 1.972 1.99S95.5 8.231 95.5 7.113zM106.441 10.173V4.036h1.254v.382c.361-.346 1-.485 1.47-.485 1.452 0 2.477 1.082 2.457 2.448v3.792h-1.27V6.492c0-.408-.214-1.339-1.315-1.339-.969 0-1.342.756-1.342 1.339v3.681h-1.254zm-30.383-.021V1.824h1.084l4.215 5.777V1.824h1.32v8.328h-1.094l-4.207-5.796v5.796h-1.319zM5.24 10.149H4V2.377h1.014l2.664 3.597 2.654-3.592h1.03v7.766h-1.256V4.762L7.678 8.068 5.24 4.742v5.407z" transform="translate(20, 434)" fill="#ababab88" stroke="none"></path></svg>